<?xml version="1.0" standalone="no"?><!DOCTYPE svg PUBLIC "-//W3C//DTD SVG 1.1//EN" "http://www.w3.org/Graphics/SVG/1.1/DTD/svg11.dtd"><svg t="1604734459001" class="icon" viewBox="0 0 3866 1024" version="1.1" xmlns="http://www.w3.org/2000/svg" p-id="1265" xmlns:xlink="http://www.w3.org/1999/xlink" width="2642.7734375" height="700"><defs><style type="text/css"></style></defs><path d="M1648.044818 153.521052l58.849737 20.469473c-61.408421 145.844999-156.079736 268.661841-281.455262 371.009209l-38.380263-51.173684c120.258157-97.229999 207.25342-207.25342 260.985788-340.304998z m225.16421 396.59605c53.732368 76.760526 140.727631 207.25342 189.34263 284.013946l-51.173684 35.821579c-12.793421-20.469474-28.145526-43.497631-43.497631-69.084473-81.877894 5.117368-373.567893 17.910789-411.948156 20.469473-25.586842 2.558684-53.732368 5.117368-79.31921 12.793421l-17.910789-61.408421c33.262895-7.676053 43.497631-12.793421 56.291052-28.145526 69.084473-79.31921 150.962368-214.929473 209.812104-337.746314l61.408421 23.028158c-56.291052 117.699473-135.610262 250.751051-204.694736 332.628946 40.938947 0 258.427104-12.793421 353.098419-17.91079-38.380263-58.849737-79.31921-120.258157-104.906052-161.197104l43.497632-33.262895z m0-409.389471c63.967105 166.314473 133.051578 258.427104 266.103156 347.981051l-40.938947 51.173683c-135.610262-97.229999-217.488157-199.577367-281.455262-381.243945l56.291053-17.910789zM2431.002183 465.680524l5.117368-71.643158h63.967105c0 12.793421-2.558684 66.525789-5.117368 76.760526l-2.558685 33.262895 138.168947 148.403683-46.056316 46.056316c-25.586842-30.70421-69.084473-79.31921-104.906052-117.699473-25.586842 107.464736-79.31921 191.901315-176.549209 294.248682l-53.732368-43.497631c122.816841-125.375526 171.431841-214.929473 181.666578-365.89184z m161.197104-322.394209h61.408421c74.201842 112.582105 186.783946 199.577367 342.863682 276.337893l-33.262894 61.408421c-150.962368-76.760526-260.985788-163.755789-337.746314-271.220525-74.201842 102.347368-184.225262 189.342631-340.304999 271.220525l-35.821578-61.408421c161.197104-76.760526 271.220525-166.314473 342.863682-276.337893z m120.258157 327.511577c2.558684-23.028158 5.117368-63.967105 5.117369-76.760526h63.967105l-5.117369 79.31921-2.558684 15.352106c23.028158 138.168947 94.671315 240.516314 225.164209 332.628945l-43.497631 51.173684c-97.229999-71.643158-168.873157-156.079736-207.25342-258.427104-33.262895 99.788684-97.229999 179.107894-202.136052 268.661841l-51.173683-48.615c148.403683-117.699473 207.25342-214.929473 217.488156-363.333156zM3257.457178 516.854208h-150.962367v-53.732368h752.253153v53.732368H3329.100336l-17.91079 84.436578h424.741577c-2.558684 23.028158-10.234737 122.816841-12.793421 145.844999-10.234737 94.671315-38.380263 115.140789-156.079736 115.140789h-176.54921l-12.793421-61.40842h171.431842c81.877894 0 97.229999-10.234737 104.906052-69.084474 2.558684-17.910789 7.676053-58.849737 7.676052-76.760526h-434.976313l30.70421-138.168946z m488.708682-342.863683v214.929473h-529.647629V173.990525h529.647629z m-463.12184 161.197105h396.596051V227.722894h-396.596051v107.464736z" fill="#5E5E5E" p-id="1266"></path><path d="M993.021664 391.478682c-94.671315-125.375526-260.985788-158.63842-411.948156-104.906052 5.117368 2.558684 10.234737 2.558684 15.352106 5.117368 222.605525 74.201842 340.304998 314.718156 266.103156 537.323682-20.469474 58.849737-51.173684 110.02342-89.553947 153.521052 48.615-12.793421 97.229999-33.262895 138.168947-63.967105 168.873157-130.492894 202.136052-371.009209 81.877894-527.088945z" fill="#07C160" p-id="1267"></path><path d="M437.787193 266.103156c10.234737-7.676053 17.910789-12.793421 28.145527-20.469473h2.558684c10.234737-5.117368 20.469474-10.234737 28.145526-17.910789 0 0 2.558684 0 2.558684-2.558685 20.469474-10.234737 40.938947-17.910789 61.408421-25.586842 2.558684 0 2.558684 0 5.117368-2.558684 10.234737-2.558684 20.469474-7.676053 30.704211-10.234737h2.558684c10.234737-2.558684 20.469474-5.117368 30.70421-5.117368h5.117369c15.352105-2.558684 25.586842-2.558684 35.821578-2.558684h7.676053c10.234737 0 23.028158-2.558684 33.262894-2.558684 12.793421 0 25.586842 0 38.380263 2.558684h5.117369c12.793421 0 23.028158 2.558684 35.821579 5.117368h5.117368c12.793421 2.558684 23.028158 5.117368 33.262895 7.676053 2.558684 0 2.558684 0 5.117368 2.558684 12.793421 2.558684 25.586842 5.117368 35.821579 10.234737-5.117368-10.234737-10.234737-17.910789-10.234737-17.91079C785.768244 69.084473 662.951403 0 529.899825 0c-79.31921 0-202.136052 28.145526-294.248683 138.168947-61.408421 74.201842-81.877894 161.197104-69.084473 248.192367 7.676053 58.849737 40.938947 138.168947 89.553946 186.783946 17.910789-125.375526 84.436578-235.398946 181.666578-307.042104z" fill="#07C160" p-id="1268"></path><path d="M529.899825 790.633417c-33.262895 0-66.525789-5.117368-97.23-10.234737h-12.793421c-10.234737 0-17.910789 2.558684-25.586842 7.676053l-102.347368 66.525789c-2.558684 2.558684-5.117368 2.558684-10.234737 2.558684-7.676053 0-15.352105-7.676053-17.910789-15.352105 0-5.117368 0-7.676053 2.558684-12.793421 0-2.558684 10.234737-51.173684 17.91079-81.877895 0-2.558684 2.558684-7.676053 0-10.234736 0-10.234737-5.117368-20.469474-15.352106-25.586842-110.02342-74.201842-184.225262-191.901315-199.577367-312.159472-28.145526 43.497631-40.938947 76.760526-56.291052 127.93421-53.732368 186.783946 63.967105 409.389471 253.309735 470.797892 220.046841 71.643158 427.300261-7.676053 498.943419-194.459999 7.676053-23.028158 17.910789-61.408421 20.469473-92.112631-74.201842 53.732368-153.521052 79.31921-255.868419 79.31921z" fill="#07C160" p-id="1269"></path></svg>